<svg width="170" height="119" viewBox="0 0 170 119" fill="none" xmlns="http://www.w3.org/2000/svg">
<path fill-rule="evenodd" clip-rule="evenodd" d="M32.16 59.808H8.736V0H0V66.912H32.16V59.808ZM76.0935 34.3697V14.304H67.3575V43.2C67.3575 48.704 66.0135 52.896 63.3255 55.776C60.6375 58.656 56.9575 60.096 52.2855 60.096C47.7415 60.096 44.1575 58.72 41.5335 55.968C38.9095 53.152 37.5975 49.152 37.5975 43.968V14.304H28.9575V45.12C28.9575 49.984 29.8855 54.112 31.7415 57.504C33.6615 60.896 36.2535 63.456 39.5175 65.184C40.7061 65.7899 41.9498 66.2856 43.2487 66.6708C42.4885 67.0088 41.7469 67.3852 41.024 67.8C37.184 70.04 34.176 73.208 32 77.304C29.824 81.336 28.736 86.072 28.736 91.512C28.736 97.016 29.824 101.816 32 105.912C34.176 110.008 37.184 113.176 41.024 115.416C44.928 117.656 49.376 118.776 54.368 118.776C60.704 118.776 65.984 117.176 70.208 113.976C73.567 111.38 76.0356 108.117 77.6139 104.186C77.8328 104.673 78.0656 105.152 78.3125 105.624C80.4885 109.784 83.4645 113.016 87.2405 115.32C91.0165 117.624 95.2405 118.776 99.9125 118.776C104.457 118.776 108.425 117.784 111.817 115.8C115.273 113.752 117.864 111.192 119.593 108.12V117.912H128.424V103.686C128.78 106.39 129.765 108.828 131.379 111C133.236 113.432 135.764 115.352 138.963 116.76C142.163 118.104 145.78 118.776 149.812 118.776C153.588 118.776 156.915 118.136 159.795 116.856C162.739 115.512 165.012 113.688 166.611 111.384C168.211 109.08 169.012 106.488 169.012 103.608C168.948 100.408 168.051 97.816 166.323 95.832C164.659 93.848 162.644 92.376 160.275 91.416C157.907 90.392 154.836 89.368 151.06 88.344C148.051 87.512 145.683 86.776 143.956 86.136C142.292 85.432 140.883 84.536 139.732 83.448C138.644 82.296 138.1 80.856 138.1 79.128C138.1 76.952 139.027 75.192 140.883 73.848C142.739 72.504 145.236 71.832 148.372 71.832C151.764 71.832 154.452 72.664 156.435 74.328C158.484 75.992 159.603 78.2 159.795 80.952H168.532C168.275 75.832 166.355 71.8 162.771 68.856C159.187 65.912 154.484 64.44 148.659 64.44C144.883 64.44 141.523 65.112 138.579 66.456C135.635 67.736 133.363 69.496 131.764 71.736C130.163 73.976 129.363 76.44 129.363 79.128C129.363 82.52 130.228 85.272 131.956 87.384C133.747 89.432 135.859 91 138.292 92.088C140.788 93.112 143.988 94.136 147.892 95.16C152.18 96.248 155.348 97.368 157.396 98.52C159.444 99.608 160.467 101.304 160.467 103.608C160.467 105.848 159.508 107.704 157.588 109.176C155.668 110.648 153.044 111.384 149.715 111.384C146.131 111.384 143.219 110.552 140.98 108.888C138.803 107.224 137.588 105.08 137.331 102.456H128.424V65.304H119.593V74.904C117.929 71.896 115.401 69.4 112.009 67.416C111.429 67.0769 110.831 66.7667 110.216 66.4855C112.739 65.6866 115.018 64.5168 117.052 62.976C121.276 59.712 124.092 55.392 125.5 50.016H116.092C115.132 53.344 113.372 55.904 110.812 57.696C108.252 59.488 105.052 60.384 101.212 60.384C96.2197 60.384 92.1877 58.656 89.1158 55.2C86.0438 51.744 84.5077 46.848 84.5077 40.512C84.5077 34.24 86.0438 29.408 89.1158 26.016C92.1877 22.56 96.2197 20.832 101.212 20.832C105.052 20.832 108.252 21.76 110.812 23.616C113.436 25.472 115.196 28 116.092 31.2H125.5C124.156 25.632 121.372 21.28 117.148 18.144C112.988 15.008 107.676 13.44 101.212 13.44C96.2197 13.44 91.7717 14.56 87.8677 16.8C84.0278 19.04 81.0198 22.208 78.8437 26.304C77.531 28.7364 76.6143 31.4249 76.0935 34.3697ZM76.0935 46.7305V66.912H67.3575V59.136C65.8293 61.6047 63.7342 63.5875 61.0724 65.0845C64.6066 65.8156 67.6838 67.1688 70.304 69.144C73.6166 71.6033 76.0435 74.8105 77.5849 78.7655C77.8121 78.2689 78.0547 77.7817 78.3125 77.304C80.4885 73.208 83.4645 70.04 87.2405 67.8C88.4878 67.0724 89.7789 66.463 91.1139 65.9718C89.993 65.5332 88.911 65.0146 87.8677 64.416C84.0278 62.176 81.0198 59.008 78.8437 54.912C77.531 52.441 76.6143 49.7139 76.0935 46.7305ZM76.3007 82.2H69.248C68.352 79 66.592 76.472 63.968 74.616C61.408 72.76 58.208 71.832 54.368 71.832C49.376 71.832 45.344 73.56 42.272 77.016C39.2 80.408 37.664 85.24 37.664 91.512C37.664 97.848 39.2 102.744 42.272 106.2C45.344 109.656 49.376 111.384 54.368 111.384C58.208 111.384 61.408 110.488 63.968 108.696C66.528 106.904 68.288 104.344 69.248 101.016H76.4188C75.5053 98.0578 75.0485 94.8578 75.0485 91.416C75.0485 88.0862 75.4659 85.0142 76.3007 82.2ZM117.193 81.144C118.793 84.088 119.593 87.544 119.593 91.512C119.593 95.48 118.793 98.968 117.193 101.976C115.593 104.92 113.417 107.192 110.665 108.792C107.976 110.328 105.001 111.096 101.737 111.096C98.4725 111.096 95.4965 110.328 92.8085 108.792C90.1205 107.192 87.9765 104.92 86.3765 101.976C84.7765 98.968 83.9765 95.448 83.9765 91.416C83.9765 87.448 84.7765 83.992 86.3765 81.048C87.9765 78.104 90.1205 75.864 92.8085 74.328C95.4965 72.792 98.4725 72.024 101.737 72.024C105.001 72.024 107.976 72.824 110.665 74.424C113.417 75.96 115.593 78.2 117.193 81.144Z" fill="black"/>
</svg>
